<svg width="128" height="128" viewBox="0 0 128 128" fill="none" xmlns="http://www.w3.org/2000/svg">
  <defs>
    <linearGradient id="bg" x1="14" y1="8" x2="116" y2="124" gradientUnits="userSpaceOnUse">
      <stop stop-color="#161D28"/>
      <stop offset="0.55" stop-color="#0D1117"/>
      <stop offset="1" stop-color="#0A0E14"/>
    </linearGradient>
    <linearGradient id="m" x1="36" y1="34" x2="92" y2="92" gradientUnits="userSpaceOnUse">
      <stop stop-color="#34E0B4"/>
      <stop offset="0.5" stop-color="#38BDF8"/>
      <stop offset="1" stop-color="#818CF8"/>
    </linearGradient>
    <radialGradient id="glow" cx="0" cy="0" r="1" gradientTransform="translate(30 28) rotate(90) scale(42)" gradientUnits="userSpaceOnUse">
      <stop stop-color="#38BDF8"/>
      <stop offset="1" stop-color="#38BDF8" stop-opacity="0"/>
    </radialGradient>
  </defs>
  <rect width="128" height="128" rx="30" fill="url(#bg)"/>
  <circle cx="29" cy="28" r="40" fill="url(#glow)" opacity="0.2"/>
  <path d="M16 34C24 12 44 4 66 6C84 8 100 18 112 34L112 16C112 10.5 107.5 6 102 6L26 6C20.5 6 16 10.5 16 16V34Z" fill="white" opacity="0.07"/>
  <path d="M36 36V92" stroke="url(#m)" stroke-width="13" stroke-linecap="round"/>
  <path d="M92 36V92" stroke="url(#m)" stroke-width="13" stroke-linecap="round"/>
  <path d="M36 36L64 66L92 36" fill="none" stroke="url(#m)" stroke-width="13" stroke-linecap="round" stroke-linejoin="round"/>
  <circle cx="64" cy="66" r="6" fill="#34E0B4"/>
</svg>
